<svg xmlns="http://www.w3.org/2000/svg" viewBox="0 0 512 512" width="512" height="512">
  <circle cx="256" cy="256" r="256" fill="#1c1918" />
  <g transform="translate(256 256) scale(0.82) translate(-256 -256)">
    <path
      fill="#fdfcf9"
      d="M153.768 250.394C147.507 247.891 139.367 241.632 141.246 225.36C143.124 209.088 154.255 183.223 170.673 164.653C194.465 137.742 250.814 103.946 305.286 111.456C363.513 121.47 374.783 152.762 369.775 190.939C364.766 229.115 337.217 251.646 331.582 256.027C325.947 260.408 303.407 277.931 293.39 279.183C282.746 283.355 258.828 291.074 248.31 288.571L264.589 233.496C271.685 209.297 288.381 161.649 298.398 164.653C312.173 156.517 302.781 140.245 293.39 143.374C267.093 156.517 218.883 215.972 204.482 242.258C188.204 265.414 159.403 316.734 147.507 358.04C134.359 392.461 145.002 413.114 153.768 418.121C162.533 423.128 185.699 418.747 200.1 397.468C214.5 376.189 240.171 321.115 241.423 307.972C252.693 307.763 279.866 305.468 298.398 297.958C321.564 288.571 354.748 267.918 372.279 239.129C389.81 210.34 394.193 169.66 386.053 150.259C376.404 127.259 369.775 115.211 336.591 99.5651C322.087 92.7266 200.1 68.8986 131.228 188.435C112.362 234.772 127.263 251.422 133.465 258.352C134.467 259.471 135.242 260.337 135.611 261.033C141.246 271.673 166.29 266.668 153.768 250.394ZM160.655 379.944C161.907 362.42 204.482 256.027 252.693 208.462C250.607 215.676 248.581 222.743 246.599 229.659C226.571 299.547 210.942 354.08 181.317 389.958C162.996 412.145 159.403 397.468 160.655 379.944Z"
    />
  </g>
</svg>
